<?xml version="1.0" encoding="UTF-8"?>
<svg id="Layer_1" data-name="Layer 1" xmlns="http://www.w3.org/2000/svg" viewBox="0 0 160 160">
  <defs>
    <style>
      .cls-1 {
        fill: #269ca2;
      }

      .cls-2 {
        fill: #a88c68;
      }

      .cls-3 {
        fill: #237857;
      }
    </style>
  </defs>
  <g>
    <path class="cls-3" d="M113.01,51.62v52.17c0,2.53-2.05,4.58-4.58,4.58h-55.01v-11.35h46.82v-45.4h12.77Z"/>
    <path class="cls-1" d="M95.98,58.51v17.02h-42.56v-17.02h8.52v8.04c0,1.83,1.48,3.31,3.31,3.31h1.91c1.82,0,3.29-1.47,3.29-3.29v-8.06h8.51v8.05c0,1.82,1.48,3.3,3.3,3.3h2c1.77,0,3.21-1.44,3.21-3.21v-8.14h8.51Z"/>
    <path class="cls-2" d="M96.16,81.28v13.68h-42.56v-5.67h38.31v-5.68h-38.31v-5.67h39.22c1.84,0,3.34,1.49,3.34,3.34Z"/>
  </g>
  <ellipse class="cls-1" cx="57.27" cy="53.86" rx="4.43" ry="3.71"/>
  <ellipse class="cls-3" cx="74.72" cy="53.86" rx="4.43" ry="3.71"/>
  <ellipse class="cls-2" cx="91.72" cy="53.68" rx="4.43" ry="3.71"/>
</svg>