<?xml version="1.0" encoding="utf-8"?>
<!-- Generator: Adobe Illustrator 27.5.0, SVG Export Plug-In . SVG Version: 6.00 Build 0)  -->
<svg version="1.1" xmlns="http://www.w3.org/2000/svg" xmlns:xlink="http://www.w3.org/1999/xlink" x="0px" y="0px"
	 viewBox="0 0 500 500" style="enable-background:new 0 0 500 500;" xml:space="preserve">
<g id="Background_Simple">
	<g>
		<path style="fill:#C6FF00;" d="M399.929,114.084c-26.787-22.148-60.832-32.959-99.999-20.679
			c-38.707,12.136-61.681,47.989-96.053,67.079c-36.563,20.306-81.241,18.227-120.101,32.858
			c-27.466,10.341-47.609,32.638-54.43,61.298C16.01,310.671,41.229,371.417,91.716,399.771
			c31.486,17.682,69.683,20.876,103.963,9.916c26.323-8.416,49.937-23.864,76.202-32.737c45.613-15.41,96.472-9.154,140.602-30.21
			c46.706-22.285,56.636-69.66,50.383-114.987C457.182,190.551,434.653,142.793,399.929,114.084z"/>
		<path style="opacity:0.7;fill:#FFFFFF;" d="M399.929,114.084c-26.787-22.148-60.832-32.959-99.999-20.679
			c-38.707,12.136-61.681,47.989-96.053,67.079c-36.563,20.306-81.241,18.227-120.101,32.858
			c-27.466,10.341-47.609,32.638-54.43,61.298C16.01,310.671,41.229,371.417,91.716,399.771
			c31.486,17.682,69.683,20.876,103.963,9.916c26.323-8.416,49.937-23.864,76.202-32.737c45.613-15.41,96.472-9.154,140.602-30.21
			c46.706-22.285,56.636-69.66,50.383-114.987C457.182,190.551,434.653,142.793,399.929,114.084z"/>
	</g>
</g>
<g id="Sketch">
	<g>
		<g>
			
				<rect x="308.466" y="124.329" transform="matrix(-5.366206e-04 1 -1 -5.366206e-04 560.5639 -164.5403)" style="fill:#FFFFFF;" width="108.084" height="147.065"/>
			<g>
				<path style="fill:#FFFFFF;stroke:#263238;stroke-linecap:round;stroke-linejoin:round;stroke-miterlimit:10;" d="
					M415.279,235.727c0,0-6.739-8.008-25.68-10.016s-11.661,5.762,0.961,12.478C403.182,244.906,415.279,235.727,415.279,235.727z"
					/>
				<path style="fill:#FFFFFF;stroke:#263238;stroke-linecap:round;stroke-linejoin:round;stroke-miterlimit:10;" d="
					M413.662,209.993c-3.4-16.568,2.814-24.454,2.814-24.454s10.696,8.206,12.197,20.447s-3.763,22.291-3.763,22.291
					S417.062,226.561,413.662,209.993z"/>
				<path style="fill:#FFFFFF;stroke:#263238;stroke-linecap:round;stroke-linejoin:round;stroke-miterlimit:10;" d="
					M404.324,206.351c0,0-11.844-6.412-15.139-19.801c-3.295-13.389,1.942-17.622,1.942-17.622s8.4,11.794,11.485,18.824
					C405.697,194.783,404.324,206.351,404.324,206.351z"/>
				<path style="fill:#FFFFFF;stroke:#263238;stroke-linecap:round;stroke-linejoin:round;stroke-miterlimit:10;" d="
					M394.18,208.222c0,0-10.42-3.167-19.851,0.326c-9.432,3.494-15.144,6.645-15.144,6.645s5.144,2.903,15.999,2.654
					S394.18,208.222,394.18,208.222z"/>
				<path style="fill:none;stroke:#263238;stroke-linecap:round;stroke-linejoin:round;stroke-miterlimit:10;" d="M422.824,238.222
					c0,0-14.162-23.455-41.752-48.112c-27.589-24.658-62.028-34.055-76.487-19.971c-14.459,14.085,3.505,19.746,9.311,9.459"/>
				<path style="fill:none;stroke:#263238;stroke-linecap:round;stroke-linejoin:round;stroke-miterlimit:10;" d="M377.275,181.456
					c0,0-13.505-10.199-17.777-19.934c-4.272-9.735,0.187-14.272,6.755-8.124C372.82,159.546,377.275,181.456,377.275,181.456z"/>
				<path style="fill:none;stroke:#263238;stroke-linecap:round;stroke-linejoin:round;stroke-miterlimit:10;" d="M372.722,193.128
					c0,0-8.058-8.074-17.12-6.677c-9.062,1.397-14.299,5.63-4.961,9.272C359.979,199.365,372.722,193.128,372.722,193.128z"/>
				
					<line style="fill:none;stroke:#263238;stroke-linecap:round;stroke-linejoin:round;stroke-miterlimit:10;" x1="304.759" y1="204.702" x2="343.443" y2="204.991"/>
				
					<line style="fill:none;stroke:#263238;stroke-linecap:round;stroke-linejoin:round;stroke-miterlimit:10;" x1="304.168" y1="216.47" x2="348.043" y2="216.784"/>
				
					<line style="fill:none;stroke:#263238;stroke-linecap:round;stroke-linejoin:round;stroke-miterlimit:10;" x1="309.132" y1="230.406" x2="361.999" y2="230.227"/>
				<path style="fill:none;stroke:#263238;stroke-linecap:round;stroke-linejoin:round;stroke-miterlimit:10;" d="M347.874,173.121
					c0,0-8.391-2.073-16.959-0.615c-8.568,1.458-12.876,7.377-12.876,7.377S342.482,181.818,347.874,173.121z"/>
				<path style="fill:none;stroke:#263238;stroke-linecap:round;stroke-linejoin:round;stroke-miterlimit:10;" d="M353.96,164.696
					c0,0-4.447-10.134-12.991-13.866c-8.544-3.732-7.12,0.823-7.12,0.823S341.861,165.977,353.96,164.696z"/>
			</g>
		</g>
		<g>
			<path style="fill:none;stroke:#263238;stroke-width:2;stroke-linecap:round;stroke-linejoin:round;stroke-miterlimit:10;" d="
				M392.454,161.724c0,0-11.535,2.332-10.61,10.662c0.925,8.33,9.746,11.012,14.526,9.461c4.779-1.551,6.232-8.195,4.022-13.232
				c-2.21-5.036-10.027-5.429-14.114,0.187"/>
			
				<line style="fill:none;stroke:#263238;stroke-width:2;stroke-linecap:round;stroke-linejoin:round;stroke-miterlimit:10;" x1="410.455" y1="155.462" x2="405.004" y2="170.413"/>
			
				<line style="fill:none;stroke:#263238;stroke-width:2;stroke-linecap:round;stroke-linejoin:round;stroke-miterlimit:10;" x1="401.957" y1="159.738" x2="417.31" y2="166.105"/>
		</g>
	</g>
</g>
<g id="Pencil">
	<g>
		<polygon style="fill:#FFFFFF;stroke:#263238;stroke-linecap:round;stroke-linejoin:round;stroke-miterlimit:10;" points="
			446.665,251.928 445.572,260.055 441.661,252.76 430.624,186.309 435.629,185.478 		"/>
		
			<rect x="437.262" y="185.439" transform="matrix(0.9865 -0.1638 0.1638 0.9865 -29.9699 74.8184)" style="fill:#C6FF00;stroke:#263238;stroke-width:0.5;stroke-linecap:round;stroke-linejoin:round;stroke-miterlimit:10;" width="2.766" height="67.361"/>
		<polygon style="fill:none;stroke:#263238;stroke-linecap:round;stroke-linejoin:round;stroke-miterlimit:10;" points="
			446.663,251.943 441.668,252.773 445.572,260.055 		"/>
		<polygon style="fill:#263238;stroke:#263238;stroke-linecap:round;stroke-linejoin:round;stroke-miterlimit:10;" points="
			443.62,256.414 445.572,260.055 446.117,255.999 		"/>
		<path style="fill:#FFFFFF;stroke:#263238;stroke-linecap:round;stroke-linejoin:round;stroke-miterlimit:10;" d="M431.891,178.454
			L431.891,178.454c-1.382,0.23-2.316,1.536-2.087,2.918l0.82,4.938l5.005-0.831l-0.82-4.938
			C434.579,179.158,433.273,178.224,431.891,178.454z"/>
		<path style="fill:#263238;stroke:#263238;stroke-linecap:round;stroke-linejoin:round;stroke-miterlimit:10;" d="M431.891,178.454
			L431.891,178.454c-1.382,0.23-2.316,1.536-2.087,2.918l0.392,2.363l5.005-0.831l-0.392-2.362
			C434.579,179.158,433.273,178.224,431.891,178.454z"/>
	</g>
</g>
<g id="Device">
	<g>
		<path style="fill:#FFFFFF;stroke:#263238;stroke-linecap:round;stroke-linejoin:round;stroke-miterlimit:10;" d="M243.225,383.989
			H88.74c-6.443,0-11.667-5.223-11.667-11.667v-99.08c0-5.891,4.776-10.667,10.667-10.667h156.485
			c5.891,0,10.667,4.776,10.667,10.667v99.08C254.892,378.766,249.668,383.989,243.225,383.989z"/>
		<g>
			<rect x="134.192" y="274.526" style="fill:#263238;" width="10.011" height="6.575"/>
			<rect x="102.481" y="315.085" style="fill:#263238;" width="9.294" height="9.22"/>
			<rect x="143.464" y="282.682" style="fill:#263238;" width="9.365" height="9.22"/>
			<rect x="122.601" y="274.526" style="fill:#263238;" width="10.011" height="6.575"/>
			<rect x="154.41" y="282.682" style="fill:#263238;" width="9.365" height="9.22"/>
			<rect x="145.784" y="274.526" style="fill:#263238;" width="10.011" height="6.575"/>
			<rect x="88.546" y="304.284" style="fill:#263238;" width="17.613" height="9.22"/>
			<rect x="121.573" y="282.682" style="fill:#263238;" width="9.365" height="9.22"/>
			<rect x="88.546" y="315.085" style="fill:#263238;" width="12.355" height="9.22"/>
			<rect x="157.375" y="274.526" style="fill:#263238;" width="10.011" height="6.575"/>
			<rect x="99.682" y="282.682" style="fill:#263238;" width="9.365" height="9.22"/>
			<rect x="99.418" y="274.526" style="fill:#263238;" width="10.011" height="6.575"/>
			<rect x="111.01" y="274.526" style="fill:#263238;" width="10.011" height="6.575"/>
			<rect x="110.627" y="282.682" style="fill:#263238;" width="9.365" height="9.22"/>
			<rect x="132.518" y="282.682" style="fill:#263238;" width="9.365" height="9.22"/>
			<rect x="203.741" y="274.526" style="fill:#263238;" width="10.011" height="6.575"/>
			<rect x="215.332" y="274.526" style="fill:#263238;" width="10.011" height="6.575"/>
			<rect x="209.137" y="282.682" style="fill:#263238;" width="9.365" height="9.22"/>
			<rect x="220.083" y="282.682" style="fill:#263238;" width="9.365" height="9.22"/>
			<rect x="232.977" y="315.085" style="fill:#263238;" width="13.789" height="9.22"/>
			<rect x="226.924" y="274.526" style="fill:#263238;" width="10.011" height="6.575"/>
			<rect x="88.546" y="282.682" style="fill:#263238;" width="9.555" height="9.22"/>
			<rect x="168.967" y="274.526" style="fill:#263238;" width="10.011" height="6.575"/>
			<rect x="180.558" y="274.526" style="fill:#263238;" width="10.011" height="6.575"/>
			<rect x="176.301" y="282.682" style="fill:#263238;" width="9.365" height="9.22"/>
			<rect x="198.192" y="282.682" style="fill:#263238;" width="9.365" height="9.22"/>
			<rect x="165.355" y="282.682" style="fill:#263238;" width="9.365" height="9.22"/>
			<rect x="187.246" y="282.682" style="fill:#263238;" width="9.365" height="9.22"/>
			<rect x="192.149" y="274.526" style="fill:#263238;" width="10.011" height="6.575"/>
			<rect x="178.604" y="315.085" style="fill:#263238;" width="9.294" height="9.22"/>
			<rect x="227.36" y="304.284" style="fill:#263238;" width="9.294" height="9.22"/>
			<rect x="216.485" y="304.284" style="fill:#263238;" width="9.294" height="9.22"/>
			<rect x="222.102" y="315.085" style="fill:#263238;" width="9.294" height="9.22"/>
			<rect x="211.227" y="315.085" style="fill:#263238;" width="9.294" height="9.22"/>
			<rect x="189.478" y="315.085" style="fill:#263238;" width="9.294" height="9.22"/>
			<rect x="200.353" y="315.085" style="fill:#263238;" width="9.294" height="9.22"/>
			<rect x="205.611" y="304.284" style="fill:#263238;" width="9.294" height="9.22"/>
			<rect x="194.736" y="304.284" style="fill:#263238;" width="9.294" height="9.22"/>
			<rect x="238.515" y="274.526" style="fill:#263238;" width="8.25" height="6.575"/>
			<rect x="88.546" y="274.526" style="fill:#263238;" width="9.292" height="6.575"/>
			<rect x="88.546" y="325.887" style="fill:#263238;" width="158.22" height="9.585"/>
			<rect x="231.029" y="282.682" style="fill:#263238;" width="15.737" height="9.22"/>
			<rect x="238.235" y="304.284" style="fill:#263238;" width="8.531" height="9.22"/>
			<polygon style="fill:#263238;" points="235.606,302.636 234.025,302.636 234.025,293.483 224.731,293.483 224.731,302.636 
				223.15,302.636 223.15,293.483 213.856,293.483 213.856,302.636 212.276,302.636 212.276,293.483 202.982,293.483 
				202.982,302.636 201.401,302.636 201.401,293.483 192.107,293.483 192.107,302.636 190.527,302.636 190.527,293.483 
				181.233,293.483 181.233,302.636 179.652,302.636 179.652,293.483 170.358,293.483 170.358,302.636 168.777,302.636 
				168.777,293.483 159.483,293.483 159.483,302.636 157.903,302.636 157.903,293.483 148.609,293.483 148.609,302.636 
				147.028,302.636 147.028,293.483 137.734,293.483 137.734,302.636 136.154,302.636 136.154,293.483 126.859,293.483 
				126.859,302.636 125.279,302.636 125.279,293.483 115.985,293.483 115.985,302.636 114.404,302.636 114.404,293.483 
				105.11,293.483 105.11,302.636 103.53,302.636 103.53,293.483 88.546,293.483 88.546,302.704 246.765,302.704 246.765,293.483 
				235.606,293.483 			"/>
			<rect x="151.238" y="304.284" style="fill:#263238;" width="9.294" height="9.22"/>
			<rect x="183.862" y="304.284" style="fill:#263238;" width="9.294" height="9.22"/>
			<rect x="129.488" y="304.284" style="fill:#263238;" width="9.294" height="9.22"/>
			<rect x="135.105" y="315.085" style="fill:#263238;" width="9.294" height="9.22"/>
			<rect x="140.363" y="304.284" style="fill:#263238;" width="9.294" height="9.22"/>
			<rect x="118.614" y="304.284" style="fill:#263238;" width="9.294" height="9.22"/>
			<rect x="113.356" y="315.085" style="fill:#263238;" width="9.294" height="9.22"/>
			<rect x="124.23" y="315.085" style="fill:#263238;" width="9.294" height="9.22"/>
			<rect x="162.112" y="304.284" style="fill:#263238;" width="9.294" height="9.22"/>
			<rect x="167.729" y="315.085" style="fill:#263238;" width="9.294" height="9.22"/>
			<rect x="172.987" y="304.284" style="fill:#263238;" width="9.294" height="9.22"/>
			<rect x="145.98" y="315.085" style="fill:#263238;" width="9.294" height="9.22"/>
			<rect x="156.854" y="315.085" style="fill:#263238;" width="9.294" height="9.22"/>
			<rect x="107.739" y="304.284" style="fill:#263238;" width="9.294" height="9.22"/>
		</g>
		<path style="fill:#263238;stroke:#263238;stroke-linecap:round;stroke-linejoin:round;stroke-miterlimit:10;" d="M265.047,170.296
			H65.962c-4.184,0-7.229,5.449-6.144,10.996l14.556,74.384c0.746,3.815,3.266,6.466,6.144,6.466h20.317v5.122H231.13v-5.122h19.361
			c2.878,0,5.397-2.652,6.144-6.466l14.556-74.384C272.276,175.745,269.232,170.296,265.047,170.296z"/>
		<polygon style="fill:#C6FF00;stroke:#263238;stroke-linecap:round;stroke-linejoin:round;stroke-miterlimit:10;" points="
			242.532,255.582 88.478,255.582 73.072,179.48 257.937,179.48 		"/>
		<polygon style="fill:#FFFFFF;" points="80.514,185.067 92.917,250.036 238.801,250.036 251.204,185.067 		"/>
		<g>
			<path style="fill:#263238;" d="M178.138,223.344c-5.926-1.142-17.384,2.664-17.384,2.664s2.371,3.425,9.482,4.566
				c7.112,1.142,16.594-3.425,16.594-3.425S184.065,224.485,178.138,223.344z"/>
			<path style="fill:#263238;" d="M211.722,242.371c-2.635-2.081-5.311-4.114-8.018-6.111c0.13-0.1,0.219-0.17,0.219-0.17
				s-0.178-0.104-0.51-0.259c0.386-0.995,1.366-4.125,0.648-8.822c-0.88-5.759-8.458-14.869-8.458-14.869s-2.55,3.303-1.271,10.137
				c1.009,5.394,5.979,10.914,8.035,13.008c-1.962-1.431-3.936-2.849-5.933-4.241c-1.298-0.917-2.622-1.8-3.947-2.683
				c-1.339-0.862-2.734-1.64-4.093-2.473c-0.467-0.273-0.939-0.54-1.407-0.811c0.436-1.33,1.108-4.232,0.48-8.344
				c-0.88-5.759-8.459-14.869-8.459-14.869s-2.55,3.303-1.271,10.137c0.834,4.458,4.375,9.001,6.742,11.629
				c-1.467-0.831-2.943-1.646-4.438-2.432c-4.951-2.621-10.034-5.025-15.253-7.132c0.004-1.322-0.236-3.434-1.458-5.806
				c-2.049-3.975-10.699-7.691-10.699-7.691s-1.495,3.549,1.141,8.168c0.386,0.676,0.894,1.297,1.478,1.868
				c-0.601-0.192-1.202-0.382-1.808-0.564c-3.103-0.904-6.244-1.647-9.407-2.282c-2.399-0.475-4.813-0.89-7.238-1.232
				c-0.493-0.966-1.448-2.423-3.212-3.87c-3.022-2.48-10.982-3.431-10.982-3.431s0.163,2.89,3.87,5.72
				c0.315,0.241,0.662,0.453,1.02,0.653c-0.897-0.051-1.795-0.092-2.694-0.118c-3.24-0.086-6.495-0.008-9.736,0.362
				c-3.236,0.369-6.476,1.023-9.552,2.239c-3.049,1.212-5.988,3.103-7.901,5.871c-0.935,1.374-1.653,2.909-1.953,4.569
				c-0.297,1.644-0.193,3.449,0.696,5.043c0.434,0.787,1.082,1.523,1.922,1.983c0.838,0.465,1.799,0.634,2.698,0.629
				c1.821-0.035,3.424-0.727,4.815-1.571c0.701-0.421,1.382-0.883,1.985-1.443c0.602-0.554,1.135-1.217,1.424-1.994
				c0.298-0.773,0.28-1.641-0.01-2.386c-0.285-0.748-0.778-1.398-1.377-1.911c0.545,0.565,0.959,1.249,1.155,1.977
				c0.201,0.727,0.131,1.497-0.199,2.151c-0.658,1.327-2.028,2.205-3.402,2.87c-1.392,0.652-2.923,1.071-4.329,0.93
				c-0.696-0.075-1.348-0.284-1.871-0.651c-0.522-0.355-1.012-0.782-1.325-1.365c-0.647-1.147-0.77-2.601-0.514-3.984
				c0.25-1.393,0.873-2.737,1.693-3.944c1.669-2.417,4.291-4.136,7.143-5.271c2.869-1.136,5.972-1.771,9.102-2.126
				c3.135-0.358,6.314-0.436,9.489-0.351c6.354,0.184,12.699,1.008,18.941,2.245c0.075,0.015,0.149,0.032,0.224,0.047
				c-1.086-0.121-2.395-0.152-3.902,0.027c-4.673,0.553-11.963,6.418-11.963,6.418s2.729,2.146,8.27,1.3s11.164-6.83,11.164-6.83
				s-0.278-0.143-0.802-0.321c2.108,0.475,4.202,1.002,6.269,1.605c3.029,0.905,6.034,1.968,9.001,3.086
				c0.993,0.38,1.974,0.79,2.957,1.194c-0.972-0.106-2.098-0.141-3.374-0.03c-4.689,0.408-12.172,6.043-12.172,6.043
				s2.656,2.23,8.222,1.557c4.637-0.561,9.438-4.674,10.916-6.035c3.636,1.611,7.213,3.35,10.723,5.209
				c2.804,1.474,5.551,3.05,8.282,4.65l4.05,2.475c1.354,0.82,2.745,1.586,4.094,2.418c1.387,0.83,2.766,1.673,4.139,2.527
				c-1.409-0.281-3.154-0.476-5.229-0.413c-6.041,0.184-16.303,6.395-16.303,6.395s3.116,2.817,10.311,2.374
				c5.786-0.356,12.187-4.637,14.475-6.303C205.95,238.6,208.837,240.482,211.722,242.371z"/>
			<path style="fill:#263238;" d="M137.048,231.662H96.353c-0.467,0-0.846,0.365-0.846,0.815s0.379,0.815,0.846,0.815h40.695
				c0.467,0,0.846-0.365,0.846-0.815S137.515,231.662,137.048,231.662z"/>
			<path style="fill:#263238;" d="M137.048,236.077H97.464c-0.467,0-0.846,0.364-0.846,0.815c0,0.45,0.379,0.815,0.846,0.815h39.584
				c0.467,0,0.846-0.365,0.846-0.815C137.894,236.441,137.515,236.077,137.048,236.077z"/>
			<path style="fill:#263238;" d="M137.048,240.257H98.516c-0.467,0-0.846,0.364-0.846,0.815c0,0.45,0.379,0.815,0.846,0.815h38.532
				c0.467,0,0.846-0.364,0.846-0.815C137.894,240.621,137.515,240.257,137.048,240.257z"/>
			<path style="fill:#263238;" d="M137.048,244.219H99.514c-0.467,0-0.846,0.365-0.846,0.815c0,0.45,0.379,0.815,0.846,0.815h37.534
				c0.467,0,0.846-0.364,0.846-0.815C137.894,244.584,137.515,244.219,137.048,244.219z"/>
		</g>
		<g>
			<path style="fill:#C6FF00;" d="M218.73,201.722l-6.223,45.595h18.755l8.653-45.595H218.73z M220.563,245.366h-5.33l0.743-5.176
				h5.408L220.563,245.366z M222.229,234.86h-5.488l0.788-5.491h5.571L222.229,234.86z M223.996,223.71h-5.656l0.837-5.835h5.744
				L223.996,223.71z M225.874,211.857h-5.835l0.891-6.212h5.928L225.874,211.857z M229.173,245.366h-5.33l0.868-5.176h5.408
				L229.173,245.366z M231.094,234.86h-5.488l0.921-5.491h5.571L231.094,234.86z M233.133,223.71h-5.656l0.979-5.835h5.744
				L233.133,223.71z M235.3,211.857h-5.835l1.042-6.212h5.928L235.3,211.857z"/>
			<polygon style="fill:#C6FF00;" points="121.529,197.215 214.687,197.215 215.852,187.886 120.532,187.886 			"/>
		</g>
	</g>
</g>
<g id="Book">
	<g>
		<g>
			<g>
				<polygon style="fill:#263238;stroke:#263238;stroke-linecap:round;stroke-linejoin:round;stroke-miterlimit:10;" points="
					341.734,377.528 407.242,415.81 458.502,316.337 397.445,281.643 				"/>
				<path style="fill:#FFFFFF;stroke:#263238;stroke-linecap:round;stroke-linejoin:round;stroke-miterlimit:10;" d="
					M344.282,371.122l-2.548,6.405l65.491,37.05c0,0,0.523-3.015,3.739-6.4L344.282,371.122z"/>
				<polygon style="fill:#263238;stroke:#263238;stroke-linecap:round;stroke-linejoin:round;stroke-miterlimit:10;" points="
					397.188,277.604 344.282,371.122 411.952,409.117 462.21,314.329 				"/>
				
					<line style="fill:none;stroke:#263238;stroke-linecap:round;stroke-linejoin:round;stroke-miterlimit:10;" x1="343.949" y1="374.483" x2="362.303" y2="383.606"/>
				
					<line style="fill:none;stroke:#263238;stroke-linecap:round;stroke-linejoin:round;stroke-miterlimit:10;" x1="342.736" y1="376.189" x2="364.196" y2="387.16"/>
				
					<line style="fill:none;stroke:#263238;stroke-linecap:round;stroke-linejoin:round;stroke-miterlimit:10;" x1="408.918" y1="410.332" x2="395.195" y2="401.977"/>
				
					<line style="fill:none;stroke:#263238;stroke-linecap:round;stroke-linejoin:round;stroke-miterlimit:10;" x1="408.072" y1="412.455" x2="385.826" y2="399.515"/>
			</g>
			<g>
				<path style="fill:#C6FF00;" d="M382.113,343.343c0,0,1.557-4.648,2.051-9.897c0.494-5.249,0.419-8.18,0.419-8.18
					s-3.5,2.394-6.076,8.115C375.93,339.103,382.113,343.343,382.113,343.343z"/>
				<path style="fill:#C6FF00;" d="M383.464,355.248c-3.854-3.253-7.085-6.731-7.085-6.731s-1.471,7.997,2.608,11.873
					c4.079,3.875,11.851,4.724,11.851,4.724S387.318,358.501,383.464,355.248z"/>
				<path style="fill:#C6FF00;" d="M362.958,357.453c6.56-4.981,12.763-8.936,17.575-11.764c0.186,0.831,1.15,4.078,5.39,7.402
					c4.916,3.854,13.74,4.885,13.74,4.885s-4.723-4.487-8.781-7.525c-3.577-2.679-8.918-4.496-10.133-4.889
					c3.628-2.126,6.44-3.6,7.976-4.376c1.695,0.899,4.796,2.212,8.332,2.107c5.336-0.158,13.335-4.75,13.335-4.75
					s-9.357-2.434-14.249-1.139c-2.512,0.665-4.755,1.429-6.349,2.017c-0.09-0.003-0.182,0.009-0.269,0.049
					c-0.016,0.008-0.183,0.087-0.472,0.228c-0.636,0.243-1.113,0.435-1.396,0.552c2.353-1.627,5.912-4.462,8.41-8.155
					c4.037-5.968,2.845-11.593,2.845-11.593s-4.498,4.304-7.74,8.577c-3.011,3.968-5.565,11.528-5.914,12.586
					c-2.1,1.132-4.875,2.696-8.092,4.665c0.016-0.361,0.066-2.56-0.786-5.98c-0.934-3.747-0.504-11.508-0.504-11.508
					s-3.435,4.906-4.584,9.124c-1.095,4.022,5.219,8.035,5.813,8.402c-2.33,1.427-4.885,3.063-7.589,4.907
					c0.405-0.941,0.656-2.192,0.552-3.851c-0.354-5.647-0.89-10.241-0.89-10.241s-4.047,5.55-4.777,9.758
					c-0.559,3.22,1.067,5.643,1.863,6.606c-4.226,3.021-8.698,6.498-13.119,10.404c-0.246,0.217-0.268,0.591-0.052,0.836
					c0.013,0.014,0.024,0.026,0.037,0.038c0.22,0.209,0.568,0.219,0.799,0.014c2.777-2.454,5.575-4.737,8.318-6.843
					c0.884,0.927,3.633,3.759,5.932,5.605c2.78,2.233,10.112,2.255,10.112,2.255s-6.859-6.108-9.833-7.708
					C366.462,357.072,364.221,357.232,362.958,357.453z M387.416,340.414c0.022,0.015,0.058,0.039,0.093,0.062
					c-0.263,0.135-0.554,0.287-0.863,0.449C386.882,340.773,387.137,340.604,387.416,340.414z"/>
			</g>
			<line style="fill:none;stroke:#C6FF00;stroke-miterlimit:10;" x1="406.272" y1="300.18" x2="440.563" y2="318.96"/>
			<line style="fill:none;stroke:#C6FF00;stroke-miterlimit:10;" x1="395.485" y1="304.272" x2="443.895" y2="330.784"/>
		</g>
		<g>
			<polygon style="fill:#C6FF00;stroke:#C6FF00;stroke-miterlimit:10;" points="458.09,322.101 462.21,314.329 453.494,309.406 			
				"/>
			<polygon style="fill:#C6FF00;stroke:#C6FF00;stroke-miterlimit:10;" points="411.952,409.117 414.878,403.6 403.298,404.258 			
				"/>
		</g>
	</g>
</g>
<g id="Right_Hand">
	<g>
		<path style="fill:#263238;" d="M282.646,302.651c-1.643-1.352-3.892-1.692-5.865-0.895c-5.701,2.302-17.024,7.266-17.615,10.614
			c-0.791,4.484,7.122,31.124,8.968,40.093c1.846,8.968,6.33,15.035,17.409,17.409c11.078,2.374,25.585-3.693,31.124-13.716
			s-2.012-19.145-7.775-28.164C304.33,320.849,288.882,307.783,282.646,302.651z"/>
		<path style="fill:#FFFFFF;stroke:#263238;stroke-linecap:round;stroke-linejoin:round;stroke-miterlimit:10;" d="M333.541,424.231
			c0,0-10.569-37.379-10.569-59.381c0-22.002-3.667-38.08-8.18-45.132c-4.513-7.052-8.744-9.873-10.719-9.873
			c-1.975,0-0.564,2.539,2.257,6.206c2.821,3.667,5.359,5.641,6.488,10.155c1.128,4.513,1.128,10.155-0.282,9.591
			c-1.41-0.564-3.667-11.847-5.642-16.078c-1.975-4.231-6.77-9.591-9.591-12.129c-2.821-2.539-9.026-10.155-11.847-8.18
			c-2.821,1.975-1.128,4.795,0.564,5.924c1.692,1.128,8.462,7.898,11.565,12.129c3.103,4.231,5.077,14.95,3.385,15.232
			c-1.692,0.282-6.77-15.514-9.591-18.899c-2.821-3.385-14.104-12.693-16.643-12.975c-2.539-0.282-2.821,3.667-0.564,5.642
			c2.257,1.975,9.873,10.437,12.411,15.514s3.667,14.386,1.41,12.129c-2.257-2.257-5.924-11.565-9.026-14.668
			c-3.103-3.103-12.411-12.975-14.668-11.847c-2.257,1.128-1.692,3.949,0.282,5.923c1.974,1.975,9.591,12.693,11.565,18.335
			c1.975,5.642,4.231,21.438,3.103,19.181c-1.128-2.257-4.795-13.822-6.77-18.617c-1.975-4.795-5.924-7.052-6.488-4.795
			c-0.564,2.257,0.564,3.385,1.975,8.462c1.41,5.077,1.41,18.617,5.641,26.233c4.231,7.616,20.592,28.208,22.848,33.849
			c2.257,5.641,8.418,31.404,8.418,31.404"/>
	</g>
</g>
<g id="Left_Hand">
	<g>
		<g>
			<g>
				<path style="fill:none;stroke:#FFFFFF;stroke-linecap:round;stroke-linejoin:round;stroke-miterlimit:10;" d="M99.649,309.939
					c-0.457,0.647-0.915,1.324-1.365,2.028"/>
				<path style="fill:none;stroke:#FFFFFF;stroke-linecap:round;stroke-linejoin:round;stroke-miterlimit:10;" d="M107.148,301.309
					c0,0-2.535,2.243-5.527,6.001"/>
				<path style="fill:none;stroke:#FFFFFF;stroke-linecap:round;stroke-linejoin:round;stroke-miterlimit:10;" d="M99.012,305.111
					c0,0-3.606,5.083-5.317,8.634"/>
			</g>
			<g>
				<path style="fill:none;stroke:#FFFFFF;stroke-linecap:round;stroke-linejoin:round;stroke-miterlimit:10;" d="M149.583,320.879
					c-0.457,0.647-0.914,1.324-1.365,2.028"/>
				<path style="fill:none;stroke:#FFFFFF;stroke-linecap:round;stroke-linejoin:round;stroke-miterlimit:10;" d="M157.083,312.25
					c0,0-2.535,2.243-5.527,6.001"/>
				<path style="fill:none;stroke:#FFFFFF;stroke-linecap:round;stroke-linejoin:round;stroke-miterlimit:10;" d="M148.946,316.052
					c0,0-3.606,5.083-5.317,8.634"/>
			</g>
		</g>
		<g>
			<path style="fill:#FFFFFF;stroke:#263238;stroke-linecap:round;stroke-linejoin:round;stroke-miterlimit:10;" d="M79.541,419.564
				c0,0,11.324-32.713,11.324-54.715c0-22.002,3.667-38.08,8.18-45.132c4.513-7.052,8.744-9.873,10.719-9.873
				c1.975,0,0.564,2.539-2.257,6.206c-2.821,3.667-5.359,5.641-6.488,10.155c-1.128,4.513-1.128,10.155,0.282,9.591
				c1.41-0.564,3.667-11.847,5.642-16.078c1.974-4.231,6.77-9.591,9.591-12.129c2.821-2.539,9.026-10.155,11.847-8.18
				c2.821,1.975,1.128,4.795-0.564,5.924c-1.692,1.128-8.462,7.898-11.565,12.129c-3.103,4.231-5.077,14.95-3.385,15.232
				c1.692,0.282,6.77-15.514,9.59-18.899c2.821-3.385,14.104-12.693,16.642-12.975c2.539-0.282,2.821,3.667,0.564,5.642
				c-2.257,1.975-9.873,10.437-12.411,15.514s-3.667,14.386-1.41,12.129c2.257-2.257,5.924-11.565,9.026-14.668
				c3.103-3.103,12.411-12.975,14.668-11.847c2.257,1.128,1.693,3.949-0.282,5.923c-1.975,1.975-9.591,12.693-11.565,18.335
				c-1.975,5.642-4.231,21.438-3.103,19.181c1.128-2.257,4.795-13.822,6.77-18.617s5.924-7.052,6.488-4.795
				c0.564,2.257-0.564,3.385-1.975,8.462c-1.41,5.077-1.41,18.617-5.642,26.233c-4.231,7.616-20.591,28.208-22.848,33.849
				c-2.257,5.641-9.172,26.737-9.172,26.737"/>
		</g>
	</g>
</g>
<g id="Arrows">
	<g>
		<g>
			<g>
				<path style="fill:none;stroke:#263238;stroke-linecap:round;stroke-linejoin:round;" d="M160.303,155.447
					c0.201-0.265,0.404-0.53,0.607-0.794"/>
				<path style="fill:none;stroke:#263238;stroke-linecap:round;stroke-linejoin:round;stroke-dasharray:1.9901,1.9901;" d="
					M162.138,153.087c23.261-29.212,59.131-47.936,99.375-47.936c33.656,0,64.254,13.096,86.975,34.47"/>
				<path style="fill:none;stroke:#263238;stroke-linecap:round;stroke-linejoin:round;" d="M349.21,140.307
					c0.241,0.23,0.481,0.461,0.72,0.693"/>
				<g>
					<polygon style="fill:#263238;" points="167.767,158.065 154.167,164.289 155.574,149.399 					"/>
				</g>
			</g>
		</g>
		<g>
			<g>
				
					<line style="fill:none;stroke:#263238;stroke-linecap:round;stroke-linejoin:round;stroke-dasharray:2,2;" x1="373.326" y1="268.267" x2="373.326" y2="306.505"/>
				<g>
					<polygon style="fill:#263238;" points="365.847,270.455 373.326,257.503 380.805,270.455 					"/>
				</g>
			</g>
		</g>
	</g>
</g>
</svg>
